<?xml version="1.0" encoding="iso-8859-1"?>
<!-- Generator: Adobe Illustrator 19.0.0, SVG Export Plug-In . SVG Version: 6.00 Build 0)  -->
<svg version="1.1" id="Capa_1" xmlns="http://www.w3.org/2000/svg" xmlns:xlink="http://www.w3.org/1999/xlink" x="0px" y="0px"
	 viewBox="0 0 512 512" style="enable-background:new 0 0 512 512;" xml:space="preserve">
<path style="fill:#303C42;" d="M357.695,101.194C340.38,51.393,278.788,0,245.333,0c-12.854,0-32,8.521-32,32
	c0,3.654,0.586,7.307,1.469,10.948C164.684,43.855,128,48.383,128,74.667c0,14.594,13.542,25.656,43.146,34.583
	c-50.836,25.789-85.594,69.917-106.033,119.257l-1.322-6.6c-0.771-3.854-3.604-6.979-7.375-8.115
	c-3.667-1.146-7.854-0.115-10.625,2.667l-10.667,10.667c-3.25,3.25-4.063,8.208-2,12.313l8.784,17.569l-27.284-10.913
	c-3.271-1.302-7-0.906-9.938,1.073C1.75,249.156,0,252.458,0,256v21.333C0,283.229,4.771,288,10.667,288h21.346l-17.076,12.802
	c-2.479,1.854-4.021,4.688-4.25,7.771c-0.208,3.083,0.917,6.115,3.104,8.302l10.667,10.667c2,2.01,4.729,3.125,7.542,3.125
	c0.25,0,0.5-0.01,0.75-0.031c3.083-0.219,5.916-1.76,7.792-4.229l2.785-3.711c-0.404,6.26-0.66,12.488-0.66,18.638
	C42.667,445.01,138.958,512,288,512c140.271,0,224-75.76,224-202.667C512,223.277,447.365,136.603,357.695,101.194z"/>
<path style="fill:#FFFFFF;" d="M437.333,298.667c0,5.104-0.938,10.094-2.833,14.906c-13.508-2.829-26.863-3.919-39.944-3.69
	c0.01-0.193,0.111-0.354,0.111-0.549c0-5.892-4.776-10.667-10.667-10.667s-10.667,4.775-10.667,10.667
	c0,0.025,0.014,0.047,0.014,0.072c-1.648-0.01-3.284,0.292-4.785,1.053c-2.452,1.225-9.966,5.078-19.63,10.701
	c-18.766-1.832-38.262-1.053-58.099,3.081c-1.875-4.813-2.833-9.802-2.833-14.906c0-14.836,7.911-28.017,20.474-35.788
	l60.901,24.361c1.271,0.51,2.604,0.76,3.958,0.76c1.146,0,2.271-0.177,3.375-0.552l55.388-18.465
	C435.203,285.635,437.333,291.973,437.333,298.667z"/>
<path style="fill:#FDD835;" d="M304.021,383c10.292-13.688,34.896-33.24,69.458-51.115c12.875,6.5,50.771,28.01,67.563,63.49
	c-2.938-1.021-11.146-3.542-12.167-3.667C387.333,380.917,331.646,381.708,304.021,383z"/>
<path style="opacity:0.2;fill:#FFFFFF;enable-background:new    ;" d="M373.479,342.69c11.185,5.647,41.22,22.652,59.931,50.271
	c2.763,0.828,5.986,1.842,7.632,2.414c-16.792-35.479-54.688-56.99-67.563-63.49c-34.563,17.875-59.167,37.427-69.458,51.115
	c3.063-0.143,6.586-0.273,10.281-0.389C327.18,370.488,347.518,356.117,373.479,342.69z"/>
<path style="fill:#FDD835;" d="M409,409.104c-11.875,12.104-31.729,26.958-46.688,37.021c-24.479-14.51-46.583-30.885-57.146-41.854
	C332.833,402.979,375.125,403.042,409,409.104z"/>
<path style="opacity:0.1;enable-background:new    ;" d="M399.143,418.259c3.618-3.138,6.988-6.23,9.857-9.155
	c-33.875-6.063-76.167-6.125-103.833-4.833c2.923,3.036,6.882,6.539,11.379,10.249C340.668,413.848,371.753,414.397,399.143,418.259
	z"/>
<g>
	<path style="fill:#E53935;" d="M288,490.667c-103.333,0-224-39.115-224-149.333c0-88.813,44.854-192.708,145.042-224.604
		c5.021-1.594,9.042-6.51,8.229-11.708c-0.792-5.198-4.354-8.927-9.604-8.927c-54.167-10.521-58.313-21.406-58.333-21.427
		c0-2.944,7.652-9.704,75.184-10.529c13.164,20.13,36.018,38.477,58.087,51.268c5.063,2.917,11.604,1.229,14.583-3.885
		c2.958-5.094,1.208-11.615-3.875-14.573c-34.542-20-58.646-46.708-58.646-64.948c0-8.594,5.875-10.542,10.667-10.667
		c23.667,0,81,46.698,93.625,90.844c0.961,3.379,3.641,5.411,6.695,6.56l-0.174,0.471c49.206,18.224,91.085,54.556,117.066,97.311
		l-89.171,48.637l-90.854-50.479c-2.563-1.406-5.583-1.719-8.333-0.865c-2.792,0.854-5.083,2.813-6.396,5.417l-10.667,21.333
		c-1.333,2.667-1.479,5.771-0.438,8.563c1.063,2.792,3.25,5,6.021,6.115l22.776,9.111c-11.842,11.757-18.818,27.697-18.818,44.983
		c0,11.302,3.188,22.594,9.208,32.656c1.958,3.281,5.458,5.198,9.146,5.198c0.854,0,1.75-0.104,2.604-0.323
		c9.887-2.491,19.688-3.98,29.352-4.74c-20.693,15.469-39.643,34.509-39.643,52.542c0,24.844,55.979,59.51,80.042,73.26
		c1.646,0.938,3.458,1.406,5.292,1.406c2.021,0,4.021-0.573,5.771-1.698c5.208-3.354,46.75-30.49,63.813-52.844
		c7.979,2.646,14.833,5.854,20.021,9.74c0.599,0.451,1.361,0.421,2.023,0.728C420.406,467.605,363.813,490.667,288,490.667z"/>
	<path style="fill:#E53935;" d="M467.326,406.18c-8.482-33.905-32.499-58.611-53.674-74.434c7.949,0.928,15.99,2.421,24.057,4.452
		c0.854,0.219,1.729,0.323,2.604,0.323c3.687,0,7.188-1.917,9.146-5.198c6.021-10.063,9.208-21.354,9.208-32.656
		c0-9.035-2.111-17.771-5.822-25.934l30.53-10.177c4.678,15.462,7.292,31.193,7.292,46.777
		C490.667,347.147,482.564,379.548,467.326,406.18z"/>
</g>
<g>
	<path style="opacity:0.2;fill:#FFFFFF;enable-background:new    ;" d="M277.324,274.319c2.38-3.564,5.087-6.918,8.16-9.969
		l-8.152-3.262l7.49,3.262C281.999,267.401,279.51,270.755,277.324,274.319z"/>
	<path style="opacity:0.2;fill:#FFFFFF;enable-background:new    ;" d="M278.355,213.404c-0.342-0.039-0.678,0.1-1.022,0.1
		C277.677,213.504,278.013,213.371,278.355,213.404z"/>
	<path style="opacity:0.2;fill:#FFFFFF;enable-background:new    ;" d="M282.176,115.406c1.355,0.85,2.819,1.199,4.29,1.297
		c-1.324-0.184-2.639-0.592-3.862-1.297c-1.759-1.02-3.508-2.284-5.271-3.372C278.953,113.122,280.56,114.387,282.176,115.406z"/>
	<path style="opacity:0.2;fill:#FFFFFF;enable-background:new    ;" d="M284.396,347.188c0.135,0,0.276-0.049,0.413-0.056
		c-2.921-0.061-5.504-1.533-7.477-3.72C279.19,345.655,281.637,347.188,284.396,347.188z"/>
	<path style="opacity:0.2;fill:#FFFFFF;enable-background:new    ;" d="M316.977,342.125c-1.238,0.098-2.497,0.319-3.741,0.441
		c-18.806,15.391-35.902,34.234-35.902,52.1C277.333,376.634,296.284,357.594,316.977,342.125z"/>
</g>
<circle style="fill:#303C42;" cx="330.667" cy="309.333" r="10.667"/>
<linearGradient id="SVGID_1_" gradientUnits="userSpaceOnUse" x1="-30.6741" y1="628.1334" x2="-27.221" y2="624.6793" gradientTransform="matrix(21.3333 0 0 -21.3333 996.3334 13791.667)">
	<stop  offset="0" style="stop-color:#000000;stop-opacity:0.1"/>
	<stop  offset="1" style="stop-color:#000000;stop-opacity:0"/>
</linearGradient>
<path style="fill:url(#SVGID_1_);" d="M432.25,414.792c-17.063,22.354-58.604,49.49-63.813,52.844
	c-1.75,1.125-3.75,1.698-5.771,1.698c-1.833,0-3.646-0.469-5.292-1.406c-13.406-7.66-36.706-21.818-54.725-37.148l52.531,52.53
	c42.634-9.826,76.186-29.4,99.113-58.049c-0.663-0.307-1.424-0.277-2.023-0.728C447.083,420.646,440.229,417.438,432.25,414.792z"/>
<path style="opacity:0.1;enable-background:new    ;" d="M65.789,363.035C80.656,456.681,191.785,490.667,288,490.667
	c75.813,0,132.406-23.061,166.294-65.408c-0.663-0.307-1.424-0.277-2.023-0.728c-5.188-3.885-12.042-7.094-20.021-9.74
	c-17.063,22.354-58.604,49.49-63.813,52.844c-1.75,1.125-3.75,1.698-5.771,1.698c-1.833,0-3.646-0.469-5.292-1.406
	c-15.294-8.74-43.443-25.931-61.954-43.677c-12.536,1.503-25.595,2.417-39.421,2.417C169.967,426.667,103.275,403.19,65.789,363.035
	z"/>
<path style="opacity:0.1;enable-background:new    ;" d="M458.667,298.667c0,11.302-3.188,22.594-9.208,32.656
	c-1.958,3.281-5.459,5.198-9.146,5.198c-0.576,0-1.143-0.118-1.714-0.212c-2.01,3.898-4.262,7.598-6.565,11.259
	c15.217,14.948,29.232,34.389,35.292,58.612c15.238-26.632,23.341-59.033,23.341-96.846c0-15.585-2.613-31.315-7.292-46.777
	l-26.206,8.736c-0.368,3.469-0.807,6.889-1.326,10.253C457.495,287.102,458.667,292.781,458.667,298.667z"/>
<linearGradient id="SVGID_2_" gradientUnits="userSpaceOnUse" x1="-44.8289" y1="638.6147" x2="-23.1622" y2="628.5118" gradientTransform="matrix(21.3333 0 0 -21.3333 996.3334 13791.667)">
	<stop  offset="0" style="stop-color:#FFFFFF;stop-opacity:0.2"/>
	<stop  offset="1" style="stop-color:#FFFFFF;stop-opacity:0"/>
</linearGradient>
<path style="fill:url(#SVGID_2_);" d="M357.695,101.194C340.38,51.393,278.788,0,245.333,0c-12.854,0-32,8.521-32,32
	c0,3.654,0.586,7.307,1.469,10.948C164.684,43.855,128,48.383,128,74.667c0,14.594,13.542,25.656,43.146,34.583
	c-50.836,25.789-85.594,69.917-106.033,119.257l-1.322-6.6c-0.771-3.854-3.604-6.979-7.375-8.115
	c-3.667-1.146-7.854-0.115-10.625,2.667l-10.667,10.667c-3.25,3.25-4.063,8.208-2,12.313l8.784,17.569l-27.284-10.913
	c-3.271-1.302-7-0.906-9.938,1.073C1.75,249.156,0,252.458,0,256v21.333C0,283.229,4.771,288,10.667,288h21.346l-17.076,12.802
	c-2.479,1.854-4.021,4.688-4.25,7.771c-0.208,3.083,0.917,6.115,3.104,8.302l10.667,10.667c2,2.01,4.729,3.125,7.542,3.125
	c0.25,0,0.5-0.01,0.75-0.031c3.083-0.219,5.916-1.76,7.792-4.229l2.785-3.711c-0.404,6.26-0.66,12.488-0.66,18.638
	C42.667,445.01,138.958,512,288,512c140.271,0,224-75.76,224-202.667C512,223.277,447.365,136.603,357.695,101.194z"/>
<g>
</g>
<g>
</g>
<g>
</g>
<g>
</g>
<g>
</g>
<g>
</g>
<g>
</g>
<g>
</g>
<g>
</g>
<g>
</g>
<g>
</g>
<g>
</g>
<g>
</g>
<g>
</g>
<g>
</g>
</svg>
