<?xml version="1.0" encoding="iso-8859-1"?>
<!-- Generator: Adobe Illustrator 19.0.0, SVG Export Plug-In . SVG Version: 6.00 Build 0)  -->
<svg version="1.1" id="Capa_1" xmlns="http://www.w3.org/2000/svg" xmlns:xlink="http://www.w3.org/1999/xlink" x="0px" y="0px"
	 viewBox="0 0 512 512" style="enable-background:new 0 0 512 512;" xml:space="preserve">
<path style="fill:#303C42;" d="M501.333,256h-32v-32c0-5.896-4.771-10.667-10.667-10.667h-32V160
	c0-5.896-4.771-10.667-10.667-10.667h-32V128h32c5.896,0,10.667-4.771,10.667-10.667V74.667C426.667,68.771,421.896,64,416,64
	h-42.667c-5.896,0-10.667,4.771-10.667,10.667v32h-32c-5.896,0-10.667,4.771-10.667,10.667v32H192v-32
	c0-5.896-4.771-10.667-10.667-10.667h-32v-32c0-5.896-4.771-10.667-10.667-10.667H96c-5.896,0-10.667,4.771-10.667,10.667v42.667
	C85.333,123.229,90.104,128,96,128h32v21.333H96c-5.896,0-10.667,4.771-10.667,10.667v53.333h-32
	c-5.896,0-10.667,4.771-10.667,10.667v32h-32C4.771,256,0,260.771,0,266.667v128c0,5.896,4.771,10.667,10.667,10.667h42.667
	c5.896,0,10.667-4.771,10.667-10.667V320h21.333v74.667c0,5.896,4.771,10.667,10.667,10.667h32v32
	c0,5.896,4.771,10.667,10.667,10.667H224c5.896,0,10.667-4.771,10.667-10.667v-42.667c0-5.896-4.771-10.667-10.667-10.667h-74.667
	v-21.333h213.333V384H288c-5.896,0-10.667,4.771-10.667,10.667v42.667c0,5.896,4.771,10.667,10.667,10.667h85.333
	c5.896,0,10.667-4.771,10.667-10.667v-32h32c5.896,0,10.667-4.771,10.667-10.667V320H448v74.667c0,5.896,4.771,10.667,10.667,10.667
	h42.667c5.896,0,10.667-4.771,10.667-10.667v-128C512,260.771,507.229,256,501.333,256z"/>
<g>
	<rect x="149.333" y="405.333" style="fill:#9CCC65;" width="64" height="21.333"/>
	<rect x="298.667" y="405.333" style="fill:#9CCC65;" width="64" height="21.333"/>
	<path style="fill:#9CCC65;" d="M490.667,384h-21.333v-74.667c0-5.896-4.771-10.667-10.667-10.667H416
		c-5.896,0-10.667,4.771-10.667,10.667V384H384v-32c0-5.896-4.771-10.667-10.667-10.667H138.667
		c-5.896,0-10.667,4.771-10.667,10.667v32h-21.333v-74.667c0-5.896-4.771-10.667-10.667-10.667H53.333
		c-5.896,0-10.667,4.771-10.667,10.667V384H21.333V277.333h32c5.896,0,10.667-4.771,10.667-10.667v-32h32
		c5.896,0,10.667-4.771,10.667-10.667v-53.333h32c5.896,0,10.667-4.771,10.667-10.667v-32h21.333v32
		c0,5.896,4.771,10.667,10.667,10.667h149.333c5.896,0,10.667-4.771,10.667-10.667v-32h21.333v32
		c0,5.896,4.771,10.667,10.667,10.667h32V224c0,5.896,4.771,10.667,10.667,10.667h32v32c0,5.896,4.771,10.667,10.667,10.667h32V384z
		"/>
</g>
<path style="fill:#303C42;" d="M181.333,192h-42.667c-5.896,0-10.667,4.771-10.667,10.667v42.667
	c0,5.896,4.771,10.667,10.667,10.667h42.667c5.896,0,10.667-4.771,10.667-10.667v-42.667C192,196.771,187.229,192,181.333,192z"/>
<g>
	<rect x="384" y="85.333" style="fill:#9CCC65;" width="21.333" height="21.333"/>
	<rect x="106.667" y="85.333" style="fill:#9CCC65;" width="21.333" height="21.333"/>
</g>
<path style="fill:#303C42;" d="M373.333,192h-42.667c-5.896,0-10.667,4.771-10.667,10.667v42.667
	c0,5.896,4.771,10.667,10.667,10.667h42.667c5.896,0,10.667-4.771,10.667-10.667v-42.667C384,196.771,379.229,192,373.333,192z"/>
<linearGradient id="SVGID_1_" gradientUnits="userSpaceOnUse" x1="-44.5468" y1="639.1421" x2="-22.2884" y2="628.7624" gradientTransform="matrix(21.3333 0 0 -21.3333 996.3334 13791.667)">
	<stop  offset="0" style="stop-color:#FFFFFF;stop-opacity:0.2"/>
	<stop  offset="1" style="stop-color:#FFFFFF;stop-opacity:0"/>
</linearGradient>
<path style="fill:url(#SVGID_1_);" d="M501.333,256h-32v-32c0-5.896-4.771-10.667-10.667-10.667h-32V160
	c0-5.896-4.771-10.667-10.667-10.667h-32V128h32c5.896,0,10.667-4.771,10.667-10.667V74.667C426.667,68.771,421.896,64,416,64
	h-42.667c-5.896,0-10.667,4.771-10.667,10.667v32h-32c-5.896,0-10.667,4.771-10.667,10.667v32H192v-32
	c0-5.896-4.771-10.667-10.667-10.667h-32v-32c0-5.896-4.771-10.667-10.667-10.667H96c-5.896,0-10.667,4.771-10.667,10.667v42.667
	C85.333,123.229,90.104,128,96,128h32v21.333H96c-5.896,0-10.667,4.771-10.667,10.667v53.333h-32
	c-5.896,0-10.667,4.771-10.667,10.667v32h-32C4.771,256,0,260.771,0,266.667v128c0,5.896,4.771,10.667,10.667,10.667h42.667
	c5.896,0,10.667-4.771,10.667-10.667V320h21.333v74.667c0,5.896,4.771,10.667,10.667,10.667h32v32
	c0,5.896,4.771,10.667,10.667,10.667H224c5.896,0,10.667-4.771,10.667-10.667v-42.667c0-5.896-4.771-10.667-10.667-10.667h-74.667
	v-21.333h213.333V384H288c-5.896,0-10.667,4.771-10.667,10.667v42.667c0,5.896,4.771,10.667,10.667,10.667h85.333
	c5.896,0,10.667-4.771,10.667-10.667v-32h32c5.896,0,10.667-4.771,10.667-10.667V320H448v74.667c0,5.896,4.771,10.667,10.667,10.667
	h42.667c5.896,0,10.667-4.771,10.667-10.667v-128C512,260.771,507.229,256,501.333,256z"/>

</svg>
