<?xml version="1.0" encoding="iso-8859-1"?>
<!-- Generator: Adobe Illustrator 19.0.0, SVG Export Plug-In . SVG Version: 6.00 Build 0)  -->
<svg version="1.1" id="Capa_1" xmlns="http://www.w3.org/2000/svg" xmlns:xlink="http://www.w3.org/1999/xlink" x="0px" y="0px"
	 viewBox="0 0 469.333 469.333" style="enable-background:new 0 0 469.333 469.333;" xml:space="preserve">
<path style="fill:#303C42;" d="M352,277.333h-74.667v-74.667c0-5.896-4.771-10.667-10.667-10.667h-256
	C4.771,192,0,196.771,0,202.667v256c0,5.896,4.771,10.667,10.667,10.667h426.667c5.896,0,10.667-4.771,10.667-10.667v-85.333
	c0-5.896-4.771-10.667-10.667-10.667h-74.667V288C362.667,282.104,357.896,277.333,352,277.333z"/>
<path style="fill:#1E88E5;" d="M256,213.333v149.333h-64V288c0-5.896-4.771-10.667-10.667-10.667h-160v-64H256z"/>
<polygon style="fill:#7CB342;" points="21.333,298.667 170.667,298.667 170.667,373.333 170.667,448 21.333,448 "/>
<path style="fill:#FF8F00;" d="M426.667,384v64H192v-64h74.667c5.896,0,10.667-4.771,10.667-10.667v-74.667h64v74.667
	c0,5.896,4.771,10.667,10.667,10.667H426.667z"/>
<path style="fill:#303C42;" d="M458.667,106.667H384v-96C384,4.771,379.229,0,373.333,0H288c-5.896,0-10.667,4.771-10.667,10.667
	v192c0,5.896,4.771,10.667,10.667,10.667h74.667V288c0,5.896,4.771,10.667,10.667,10.667h85.333c5.896,0,10.667-4.771,10.667-10.667
	V117.333C469.333,111.438,464.563,106.667,458.667,106.667z"/>
<path style="fill:#FFCA28;" d="M448,277.333h-64v-74.667c0-5.896-4.771-10.667-10.667-10.667h-74.667V21.333h64v96
	c0,5.896,4.771,10.667,10.667,10.667H448V277.333z"/>
<linearGradient id="SVGID_1_" gradientUnits="userSpaceOnUse" x1="-66.0461" y1="616.8861" x2="-44.1154" y2="606.6593" gradientTransform="matrix(21.3333 0 0 -21.3333 1430.1112 13315.2227)">
	<stop  offset="0" style="stop-color:#FFFFFF;stop-opacity:0.2"/>
	<stop  offset="1" style="stop-color:#FFFFFF;stop-opacity:0"/>
</linearGradient>
<path style="fill:url(#SVGID_1_);" d="M352,277.333h-74.667v-74.667c0-5.896-4.771-10.667-10.667-10.667h-256
	C4.771,192,0,196.771,0,202.667v256c0,5.896,4.771,10.667,10.667,10.667h426.667c5.896,0,10.667-4.771,10.667-10.667v-85.333
	c0-5.896-4.771-10.667-10.667-10.667h-74.667V288C362.667,282.104,357.896,277.333,352,277.333z M458.667,106.667H384v-96
	C384,4.771,379.229,0,373.333,0H288c-5.896,0-10.667,4.771-10.667,10.667v192c0,5.896,4.771,10.667,10.667,10.667h74.667V288
	c0,5.896,4.771,10.667,10.667,10.667h85.333c5.896,0,10.667-4.771,10.667-10.667V117.333
	C469.333,111.438,464.563,106.667,458.667,106.667z"/>
</svg>
