<?xml version="1.0" encoding="iso-8859-1"?>
<!-- Generator: Adobe Illustrator 19.0.0, SVG Export Plug-In . SVG Version: 6.00 Build 0)  -->
<svg version="1.1" id="Capa_1" xmlns="http://www.w3.org/2000/svg" xmlns:xlink="http://www.w3.org/1999/xlink" x="0px" y="0px"
	 viewBox="0 0 469.333 469.333" style="enable-background:new 0 0 469.333 469.333;" xml:space="preserve">
<path style="fill:#303C42;" d="M426.667,384h-128v-10.667c0-13.888-8.944-25.617-21.333-30.035v-184.5
	C302.716,143.996,320,116.776,320,85.333C320,38.281,281.729,0,234.667,0s-85.333,38.281-85.333,85.333
	c0,31.443,17.284,58.663,42.667,73.465v184.5c-12.389,4.418-21.333,16.147-21.333,30.035V384h-21.333v-10.667
	c0-5.896-4.771-10.667-10.667-10.667h-64c-5.896,0-10.667,4.771-10.667,10.667V384H42.667C19.146,384,0,403.135,0,426.667v32
	c0,5.896,4.771,10.667,10.667,10.667h448c5.896,0,10.667-4.771,10.667-10.667v-32C469.333,403.135,450.188,384,426.667,384z"/>
<circle style="fill:#E53935;" cx="234.667" cy="85.333" r="64"/>
<path style="opacity:0.1;enable-background:new    ;" d="M266.478,30.132c0.018,0.635,0.189,1.229,0.189,1.868
	c0,35.292-28.708,64-64,64c-11.633,0-22.401-3.354-31.811-8.799c1.016,34.411,29.159,62.133,63.811,62.133c35.292,0,64-28.708,64-64
	C298.667,61.673,285.617,41.207,266.478,30.132z"/>
<path style="fill:#E53935;" d="M234.667,170.667c7.41,0,14.474-1.246,21.333-3.029v173.695h-42.667V167.638
	C220.193,169.421,227.257,170.667,234.667,170.667z"/>
<path style="fill:#546E7A;" d="M192,373.333c0-5.885,4.792-10.667,10.667-10.667h64c5.875,0,10.667,4.781,10.667,10.667V384H192
	V373.333z"/>
<path id="SVGCleanerId_0" style="fill:#546E7A;" d="M448,448H21.333v-21.333c0-11.76,9.563-21.333,21.333-21.333h384
	c11.771,0,21.333,9.573,21.333,21.333V448z"/>
<g>
	<path id="SVGCleanerId_0_1_" style="fill:#546E7A;" d="M448,448H21.333v-21.333c0-11.76,9.563-21.333,21.333-21.333h384
		c11.771,0,21.333,9.573,21.333,21.333V448z"/>
</g>
<path style="opacity:0.1;enable-background:new    ;" d="M426.667,405.333H352c11.771,0,21.333,9.573,21.333,21.333V448H448v-21.333
	C448,414.906,438.438,405.333,426.667,405.333z"/>
<linearGradient id="SVGID_1_" gradientUnits="userSpaceOnUse" x1="-56.6826" y1="616.6467" x2="-54.3903" y2="614.3533" gradientTransform="matrix(21.3333 0 0 -21.3333 1430.1112 13315.2227)">
	<stop  offset="0" style="stop-color:#000000;stop-opacity:0.1"/>
	<stop  offset="1" style="stop-color:#000000;stop-opacity:0"/>
</linearGradient>
<path style="fill:url(#SVGID_1_);" d="M213.333,167.638v12.493L256,222.798v-55.16c-6.859,1.783-13.923,3.029-21.333,3.029
	S220.193,169.421,213.333,167.638z"/>
<linearGradient id="SVGID_2_" gradientUnits="userSpaceOnUse" x1="-63.2112" y1="614.2294" x2="-43.8053" y2="605.1799" gradientTransform="matrix(21.3333 0 0 -21.3333 1430.1112 13315.2227)">
	<stop  offset="0" style="stop-color:#FFFFFF;stop-opacity:0.2"/>
	<stop  offset="1" style="stop-color:#FFFFFF;stop-opacity:0"/>
</linearGradient>
<path style="fill:url(#SVGID_2_);" d="M426.667,384h-128v-10.667c0-13.888-8.944-25.617-21.333-30.035v-184.5
	C302.716,143.996,320,116.776,320,85.333C320,38.281,281.729,0,234.667,0s-85.333,38.281-85.333,85.333
	c0,31.443,17.284,58.663,42.667,73.465v184.5c-12.389,4.418-21.333,16.147-21.333,30.035V384h-21.333v-10.667
	c0-5.896-4.771-10.667-10.667-10.667h-64c-5.896,0-10.667,4.771-10.667,10.667V384H42.667C19.146,384,0,403.135,0,426.667v32
	c0,5.896,4.771,10.667,10.667,10.667h448c5.896,0,10.667-4.771,10.667-10.667v-32C469.333,403.135,450.188,384,426.667,384z"/>
<g>
</g>
<g>
</g>
<g>
</g>
<g>
</g>
<g>
</g>
<g>
</g>
<g>
</g>
<g>
</g>
<g>
</g>
<g>
</g>
<g>
</g>
<g>
</g>
<g>
</g>
<g>
</g>
<g>
</g>
</svg>
