<?xml version="1.0" encoding="iso-8859-1"?>
<!-- Generator: Adobe Illustrator 19.0.0, SVG Export Plug-In . SVG Version: 6.00 Build 0)  -->
<svg version="1.1" id="Capa_1" xmlns="http://www.w3.org/2000/svg" xmlns:xlink="http://www.w3.org/1999/xlink" x="0px" y="0px"
	 viewBox="0 0 469.333 469.333" style="enable-background:new 0 0 469.333 469.333;" xml:space="preserve">
<path style="fill:#303C42;" d="M426.667,0h-384C19.135,0,0,19.135,0,42.667v384c0,23.531,19.135,42.667,42.667,42.667h384
	c23.531,0,42.667-19.135,42.667-42.667v-384C469.333,19.135,450.198,0,426.667,0z"/>
<path style="fill:#388E3C;" d="M448,426.667c0,11.76-9.573,21.333-21.333,21.333h-384c-11.76,0-21.333-9.573-21.333-21.333v-384
	c0-11.76,9.573-21.333,21.333-21.333h384c11.76,0,21.333,9.573,21.333,21.333V426.667z"/>
<path style="fill:#303C42;" d="M192,181.333v-64c0-5.896-4.771-10.667-10.667-10.667h-64c-5.896,0-10.667,4.771-10.667,10.667v64
	c0,5.896,4.771,10.667,10.667,10.667h64C187.229,192,192,187.229,192,181.333z"/>
<rect x="128" y="128" style="fill:#546E7A;" width="42.667" height="42.667"/>
<path style="fill:#303C42;" d="M352,106.667h-64c-5.896,0-10.667,4.771-10.667,10.667v64c0,5.896,4.771,10.667,10.667,10.667h64
	c5.896,0,10.667-4.771,10.667-10.667v-64C362.667,111.438,357.896,106.667,352,106.667z"/>
<rect x="298.667" y="128" style="fill:#546E7A;" width="42.667" height="42.667"/>
<path style="fill:#303C42;" d="M330.667,234.667h-53.333v-32c0-5.896-4.771-10.667-10.667-10.667h-64
	c-5.896,0-10.667,4.771-10.667,10.667v32h-53.333c-5.896,0-10.667,4.771-10.667,10.667V352c0,5.896,4.771,10.667,10.667,10.667
	h42.667c5.896,0,10.667-4.771,10.667-10.667v-32h85.333v32c0,5.896,4.771,10.667,10.667,10.667h42.667
	c5.896,0,10.667-4.771,10.667-10.667V245.333C341.333,239.438,336.563,234.667,330.667,234.667z"/>
<path style="fill:#546E7A;" d="M320,341.333h-21.333v-32c0-5.896-4.771-10.667-10.667-10.667H181.333
	c-5.896,0-10.667,4.771-10.667,10.667v32h-21.333V256h53.333c5.896,0,10.667-4.771,10.667-10.667v-32H256v32
	c0,5.896,4.771,10.667,10.667,10.667H320V341.333z"/>
<linearGradient id="SVGID_1_" gradientUnits="userSpaceOnUse" x1="-59.8245" y1="617.4337" x2="-46.0824" y2="603.6916" gradientTransform="matrix(21.3333 0 0 -21.3333 1430.1112 13315.2227)">
	<stop  offset="0" style="stop-color:#000000;stop-opacity:0.1"/>
	<stop  offset="1" style="stop-color:#000000;stop-opacity:0"/>
</linearGradient>
<path style="fill:url(#SVGID_1_);" d="M109.18,187.98l0.014,0.014c0,0-0.008-0.012-0.012-0.017L109.18,187.98z M313.525,234.667
	l-38.837-38.837c1.586,1.862,2.646,4.197,2.646,6.837v32H313.525z M360.021,110.496c1.586,1.862,2.646,4.197,2.646,6.837v64
	c0,5.896-4.771,10.667-10.667,10.667h-64c-1.928,0-3.641-0.65-5.201-1.543l44.21,44.21h3.658c5.896,0,10.667,4.771,10.667,10.667
	V352c0,5.896-4.771,10.667-10.667,10.667H288c-5.896,0-10.667-4.771-10.667-10.667v-32H192v32c0,5.896-4.771,10.667-10.667,10.667
	h-42.667c-2.948,0-5.615-1.193-7.544-3.122L219.579,448h207.087c11.76,0,21.333-9.573,21.333-21.333V198.475L360.021,110.496z
	 M192,234.667v-32c0-5.896,4.771-10.667,10.667-10.667h64c2.641,0,4.975,1.06,6.837,2.646l-84.15-84.15
	c1.586,1.862,2.646,4.197,2.646,6.837v64c0,5.896-4.771,10.667-10.667,10.667h-64c-2.564,0-4.823-1.022-6.661-2.527l45.194,45.194
	H192z"/>
<linearGradient id="SVGID_2_" gradientUnits="userSpaceOnUse" x1="-68.6888" y1="619.0512" x2="-43.3842" y2="607.2509" gradientTransform="matrix(21.3333 0 0 -21.3333 1430.1112 13315.2227)">
	<stop  offset="0" style="stop-color:#FFFFFF;stop-opacity:0.2"/>
	<stop  offset="1" style="stop-color:#FFFFFF;stop-opacity:0"/>
</linearGradient>
<path style="fill:url(#SVGID_2_);" d="M426.667,0h-384C19.135,0,0,19.135,0,42.667v384c0,23.531,19.135,42.667,42.667,42.667h384
	c23.531,0,42.667-19.135,42.667-42.667v-384C469.333,19.135,450.198,0,426.667,0z"/>
<g>
</g>
<g>
</g>
<g>
</g>
<g>
</g>
<g>
</g>
<g>
</g>
<g>
</g>
<g>
</g>
<g>
</g>
<g>
</g>
<g>
</g>
<g>
</g>
<g>
</g>
<g>
</g>
<g>
</g>
</svg>
