<?xml version="1.0" encoding="iso-8859-1"?>
<!-- Generator: Adobe Illustrator 19.0.0, SVG Export Plug-In . SVG Version: 6.00 Build 0)  -->
<svg version="1.1" id="Capa_1" xmlns="http://www.w3.org/2000/svg" xmlns:xlink="http://www.w3.org/1999/xlink" x="0px" y="0px"
	 viewBox="0 0 512 512" style="enable-background:new 0 0 512 512;" xml:space="preserve">
<path style="fill:#303C42;" d="M426.354,417.073c-4.021-62.281-46.688-107.74-85.021-107.74c-7.333,0-14.423,2.017-21.25,4.802
	v-36.115c3.479-10.948,21.25-70.677,21.25-150.021c0-87.323-101.833-128-170.667-128C101.771,0,21.333,30.729,21.333,117.333
	c0,71.51,50.146,134.479,71.438,157.979c-8.438,6.74-18.104,17.948-18.104,34.021c0,21.762,18.596,43.499,53.871,50.665
	c-0.23,0.874-0.538,1.721-0.538,2.668V416c0,89.073,81.646,96,106.667,96c55.625,0,85.833-16.99,101.896-38.021
	C351.313,512,390.521,512,416,512c37.167,0,74.667-13.198,74.667-42.667C490.667,443.76,452.729,422.063,426.354,417.073z"/>
<path style="fill:#FFFFFF;" d="M113.438,248.01c-1.938,1.701-6.673,4.945-12.238,4.292c-10.479-12.572-24.35-31.178-36.029-53.499
	c2.363-49.346,16.172-49.47,22.142-49.47c15.542,0,22.521,6.24,22.521,10.667c0,5.896,4.771,10.667,10.667,10.667
	c5.896,0,10.667-4.771,10.667-10.667c0-0.323,1.438-32,33.583-32c16.604,0,33.563,6.333,33.563,53.333
	c0,42.354-15.979,74.667-22.5,74.667c-10.708,0-27.063-20.885-34.75-35c-2.167-3.948-6.625-6.24-11.021-5.438
	c-4.458,0.698-8,4.115-8.833,8.542C119.271,234.281,115.521,245.729,113.438,248.01z"/>
<path style="fill:#FDD1B0;" d="M416,490.667c-32.917,0-64,0-64-53.333c0-5.479-4.167-10.073-9.625-10.615
	c-5.813-0.646-10.438,3.156-11.5,8.521c-7.354,36.781-39.729,55.427-96.208,55.427c-31.875,0-85.333-9.698-85.333-74.667v-53.333
	c0-0.103-0.056-0.188-0.059-0.29c1.52,0.048,2.848,0.29,4.413,0.29c49.292,0,63.333-24.313,64.771-27.094
	c2.646-5.115,0.667-11.292-4.375-14.094c-5.042-2.792-11.479-0.948-14.438,4.021c-0.375,0.646-9.813,15.833-45.958,15.833
	c-37.479,0-57.688-16.49-57.688-32c0-14.01,17.625-22.188,17.75-22.25c3.25-1.427,5.563-4.396,6.188-7.885
	c0.57-3.184-0.509-6.349-2.604-8.771c3.59-1.633,7.078-3.654,10.25-6.448c3.208-2.844,5.854-7.521,8-12.667
	c9.875,12.573,24.208,26.021,40.229,26.021c29.896,0,43.833-57.281,43.833-96c0-49.542-18.479-74.667-54.896-74.667
	c-25.771,0-40.729,13.875-48.354,28.552C109.375,130.823,99.729,128,87.313,128c-21.625,0-32.357,14.564-37.887,32.827
	c-4.184-13.949-6.759-28.585-6.759-43.493c0-91.375,106.625-96,128-96C217.458,21.333,320,48.188,320,128
	c0,82.396-20.479,144.313-20.688,144.927c-0.375,1.094-0.563,2.25-0.563,3.406v50.121c-16.233,12.28-27.904,27.072-29.958,29.816
	c-3.521,4.708-2.563,11.385,2.146,14.917c4.708,3.563,11.417,2.604,14.917-2.115c8.042-10.677,33.708-38.406,55.479-38.406
	c26.104,0,64,37.396,64,96c0,5.896,4.771,10.667,10.667,10.667c18.375,0,53.333,19.125,53.333,32
	C469.333,481.094,445.417,490.667,416,490.667z"/>
<path style="opacity:0.1;enable-background:new    ;" d="M256,469.333c-31.875,0-85.333-9.698-85.333-74.667v-33.07
	c-5.134,0.68-10.772,1.07-16.979,1.07c-1.565,0-2.893-0.242-4.413-0.29c0.003,0.103,0.059,0.188,0.059,0.29V416
	c0,64.969,53.458,74.667,85.333,74.667c45.167,0,74.639-12.129,88.507-35.717C307.047,464.484,284.659,469.333,256,469.333z"/>
<g>
	<path style="fill:#303C42;" d="M211.583,74.813l-64,10.667c-5.813,0.969-9.75,6.458-8.771,12.271
		c0.875,5.219,5.396,8.917,10.5,8.917c0.583,0,1.188-0.042,1.771-0.146l64-10.667c5.813-0.969,9.75-6.458,8.771-12.271
		S217.292,73.802,211.583,74.813z"/>
	<path style="fill:#303C42;" d="M96,85.333H74.667C68.771,85.333,64,90.104,64,96c0,5.896,4.771,10.667,10.667,10.667H96
		c5.896,0,10.667-4.771,10.667-10.667C106.667,90.104,101.896,85.333,96,85.333z"/>
	<path style="fill:#303C42;" d="M101.333,181.333c-10.458,0-16,11.063-16,32s5.542,32,16,32s16-11.063,16-32
		S111.792,181.333,101.333,181.333z"/>
	<path style="fill:#303C42;" d="M170.667,234.667c12.354,0,21.333-13.458,21.333-32s-8.979-32-21.333-32s-21.333,13.458-21.333,32
		S158.313,234.667,170.667,234.667z"/>
</g>
<path style="opacity:0.1;enable-background:new    ;" d="M416,437.333c-5.896,0-10.667-4.771-10.667-10.667
	c0-58.604-37.896-96-64-96c-3.447,0-6.992,0.876-10.549,2.089c22.932,7.837,49.936,38.927,52.945,85.693
	c0.625,9.719,7.75,17.781,17.333,19.583C424.354,442.438,448,459.958,448,469.333c0,10.952-20.822,19.902-47.432,21.094
	c5.026,0.215,10.197,0.24,15.432,0.24c29.417,0,53.333-9.573,53.333-21.333C469.333,456.458,434.375,437.333,416,437.333z"/>
<path style="opacity:0.1;enable-background:new    ;" d="M298.667,128c0,75.99-16.875,132.917-20.25,143.563
	c-0.667,2.083-1,4.271-1,6.458v36.115c0,7.104,3.542,13.74,9.417,17.698c1.103,0.741,2.335,1.158,3.529,1.674
	c2.677-2.371,5.359-4.763,8.388-7.053v-50.121c0-1.156,0.188-2.313,0.563-3.406C299.521,272.313,320,210.396,320,128
	c0-79.813-102.542-106.667-149.333-106.667c-2.603,0-6.508,0.077-11.293,0.362C212.945,25.335,298.667,57.237,298.667,128z"/>
<linearGradient id="SVGID_1_" gradientUnits="userSpaceOnUse" x1="-47.0849" y1="639.2591" x2="-22.0933" y2="627.6053" gradientTransform="matrix(21.3333 0 0 -21.3333 996.3334 13791.667)">
	<stop  offset="0" style="stop-color:#FFFFFF;stop-opacity:0.2"/>
	<stop  offset="1" style="stop-color:#FFFFFF;stop-opacity:0"/>
</linearGradient>
<path style="fill:url(#SVGID_1_);" d="M426.354,417.073c-4.021-62.281-46.688-107.74-85.021-107.74
	c-7.333,0-14.423,2.017-21.25,4.802v-36.115c3.479-10.948,21.25-70.677,21.25-150.021c0-87.323-101.833-128-170.667-128
	C101.771,0,21.333,30.729,21.333,117.333c0,71.51,50.146,134.479,71.438,157.979c-8.438,6.74-18.104,17.948-18.104,34.021
	c0,21.762,18.596,43.499,53.871,50.665c-0.23,0.874-0.538,1.721-0.538,2.668V416c0,89.073,81.646,96,106.667,96
	c55.625,0,85.833-16.99,101.896-38.021C351.313,512,390.521,512,416,512c37.167,0,74.667-13.198,74.667-42.667
	C490.667,443.76,452.729,422.063,426.354,417.073z"/>

</svg>
